<svg class="icon" style="width: 1em; height: 1em;vertical-align: middle;fill: #5e32a8; overflow: hidden;" 
viewBox="0 0 1024 1024" version="1.1" xmlns="http://www.w3.org/2000/svg">
<path d="M512 470.016l169.984 0 0 256-169.984 0 0-256zM256 297.984l214.016 0 0 214.016-214.016 0 0-214.016zM512 297.984l169.984 0 0 128-169.984 0 0-128zM256 553.984l214.016 0 0 171.989333-214.016 0 0-171.989333zM768 809.984l0-596.010667-598.016 0 0 596.010667 598.016 0zM937.984 384l-84.010667 0 0 86.016 84.010667 0 0 84.010667-84.010667 0 0 86.016 84.010667 0 0 86.016-84.010667 0 0 84.010667q0 34.005333-25.984 59.989333t-59.989333 25.984l-598.016 0q-34.005333 0-59.008-25.984t-25.002667-59.989333l0-596.010667q0-34.005333 25.002667-59.989333t59.008-25.984l598.016 0q34.005333 0 59.989333 25.984t25.984 59.989333l0 84.010667 84.010667 0 0 86.016z" />
</svg>
